<svg width="20" height="20" viewBox="0 0 20 20" fill="none" xmlns="http://www.w3.org/2000/svg">
<path fill-rule="evenodd" clip-rule="evenodd" d="M10 0C15.5229 0 20 4.4771 20 10C20 15.5229 15.5229 20 10 20C4.4771 20 0 15.5229 0 10C0 4.4771 4.4771 0 10 0ZM10.6833 11.4303L9.83223 10.9393L9.20891 10.5792V12.4063L10.1665 12.9598L11.0017 13.4423L13.0382 14.6179V12.7908L11.2454 11.7561L10.6821 11.4315L10.6833 11.4303ZM4.0387 8.48886V5.90987L4.25178 5.76904L4.26769 5.77761L6.62381 4.41709L8.97992 5.77761L8.99584 5.76904L9.20891 5.90987V6.82341L10.6674 5.9809L13.375 4.41709L15.9601 5.90987V8.89297L14.0424 10L15.9601 11.107V14.0901L13.375 15.5829L10.6674 14.0191L9.20891 13.1778V14.0901L6.62381 15.5829L4.0387 14.0901V8.48886ZM8.53906 7.20916V6.80382L6.95934 7.71614V14.6167L8.53906 13.7044V7.20916ZM8.31251 6.16336L6.62381 5.18859L4.9351 6.16336L6.62381 7.13813L8.31251 6.16336ZM4.70855 6.80382V13.7044L6.28827 14.6167V7.71736L4.70855 6.80504V6.80382ZM11.2919 6.39113L11.0029 6.5589L9.21014 7.59368V9.80896L11.5822 11.1781L13.3762 12.2141L14.9584 11.3005L14.3338 10.9393L13.4987 10.4568L10.4592 8.70193L14.9596 6.10336L13.3774 5.18981L11.2944 6.39236L11.2919 6.39113ZM13.375 9.61425L15.2902 8.50845V6.68136L11.7928 8.70071L13.375 9.61425ZM15.2902 11.8785L13.7105 12.7908V14.6179L15.2902 13.7056V11.8785Z" fill="white"/>
</svg>
